<?xml version="1.0" encoding="iso-8859-1"?>
<!-- Generator: Adobe Illustrator 19.0.0, SVG Export Plug-In . SVG Version: 6.00 Build 0)  -->
<svg version="1.1" id="Capa_1" xmlns="http://www.w3.org/2000/svg" xmlns:xlink="http://www.w3.org/1999/xlink" x="0px" y="0px"
	 viewBox="0 0 512 512" style="enable-background:new 0 0 512 512;" xml:space="preserve">
<g>
	<g>
		<path d="M430.125,337.058H10c-5.522,0-10,4.478-10,10v69.34c0,5.522,4.478,10,10,10h158.814c5.522,0,10-4.478,10-10
			c0-5.522-4.478-10-10-10h-31.438v-49.34h266.976c-3.153,7.027-4.977,15.48-4.977,24.67c0,9.189,1.823,17.643,4.977,24.67h-154.26
			c-5.522,0-10,4.478-10,10c0,5.522,4.478,10,10,10h180.033c17.243,0,30.75-19.621,30.75-44.67S447.368,337.058,430.125,337.058z
			 M117.377,406.398H20v-49.34h97.377V406.398z M430.125,406.398c-3.789,0-10.749-9.366-10.749-24.67
			c0-15.304,6.96-24.67,10.749-24.67c3.79,0,10.75,9.366,10.75,24.67S433.915,406.398,430.125,406.398z"/>
	</g>
</g>
<g>
	<g>
		<path d="M464.935,156.81h-60.24c-14.925,0-27.067-12.142-27.067-27.066c0-5.522-4.478-10-10-10c-5.523,0-10,4.478-10,10
			c0,11.388,4.067,21.843,10.823,29.992H325.37c-14.925,0-27.067-12.143-27.067-27.068s12.143-27.066,27.067-27.066
			c5.522,0,10-4.478,10-10c0-5.522-4.478-10-10-10c-25.953,0-47.067,21.114-47.067,47.066c0,25.953,21.114,47.068,47.067,47.068
			h46.109c14.925,0,27.067,12.142,27.067,27.066c0,10.292-5.842,19.607-15.014,24.202c-25.672,1.225-46.182,22.49-46.182,48.46
			c0,17.754,9.737,34.091,25.413,42.634c1.52,0.829,3.159,1.222,4.776,1.222c3.542,0,6.975-1.887,8.789-5.217
			c2.644-4.849,0.854-10.923-3.994-13.566c-9.243-5.038-14.984-14.645-14.984-25.073c0-15.717,12.78-28.505,28.494-28.519
			c0.011,0,0.021,0.002,0.031,0.002c0.66,0,1.326-0.067,1.989-0.203c0.68-0.138,1.334-0.346,1.956-0.613
			c17.45-7.432,28.725-24.435,28.725-43.329c0-11.388-4.067-21.843-10.822-29.992h57.211c14.925,0,27.066,12.142,27.066,27.066
			c0,14.926-12.142,27.068-27.066,27.068h-19.945c-26.754,0-48.52,21.766-48.52,48.52v38.521c0,5.522,4.477,10,10,10
			c5.522,0,10-4.478,10-10v-38.521c0-15.726,12.794-28.52,28.52-28.52h19.945c25.952,0,47.066-21.115,47.066-47.068
			C512.001,177.924,490.887,156.81,464.935,156.81z"/>
	</g>
</g>
<g>
	<g>
		<path d="M363.224,90.652c-5.919,0-10.746,4.826-10.746,10.746c0,5.918,4.827,10.746,10.746,10.746s10.747-4.828,10.747-10.746
			C373.971,95.478,369.143,90.652,363.224,90.652z"/>
	</g>
</g>
<g>
	<g>
		<path d="M198.374,406.398h-0.475c-5.522,0-10,4.478-10,10c0,5.522,4.478,10,10,10h0.475c5.523,0,10-4.478,10-10
			C208.374,410.876,203.896,406.398,198.374,406.398z"/>
	</g>
</g>
<g>
</g>
<g>
</g>
<g>
</g>
<g>
</g>
<g>
</g>
<g>
</g>
<g>
</g>
<g>
</g>
<g>
</g>
<g>
</g>
<g>
</g>
<g>
</g>
<g>
</g>
<g>
</g>
<g>
</g>
</svg>
